<?xml version="1.0" encoding="UTF-8" standalone="no"?>
<!-- Created with Inkscape (http://www.inkscape.org/) -->

<svg
   xmlns:dc="http://purl.org/dc/elements/1.1/"
   xmlns:cc="http://creativecommons.org/ns#"
   xmlns:rdf="http://www.w3.org/1999/02/22-rdf-syntax-ns#"
   xmlns:svg="http://www.w3.org/2000/svg"
   xmlns="http://www.w3.org/2000/svg"
   xmlns:sodipodi="http://sodipodi.sourceforge.net/DTD/sodipodi-0.dtd"
   xmlns:inkscape="http://www.inkscape.org/namespaces/inkscape"
   width="600"
   height="590.35999"
   id="svg3982"
   version="1.1"
   inkscape:version="0.48.5 r10040"
   sodipodi:docname="conf.svg"
   inkscape:export-filename="/home/lxsameer/src/IOR/IrRubyConf2015/src/_assets/images/high-logo.png"
   inkscape:export-xdpi="90"
   inkscape:export-ydpi="90">
  <defs
     id="defs3984">
    <linearGradient
       id="linearGradient3761">
      <stop
         style="stop-color:#f2f2f2;stop-opacity:1;"
         offset="0"
         id="stop3763" />
      <stop
         style="stop-color:#f2f2f2;stop-opacity:0;"
         offset="1"
         id="stop3765" />
    </linearGradient>
  </defs>
  <sodipodi:namedview
     id="base"
     pagecolor="#ffffff"
     bordercolor="#666666"
     borderopacity="1.0"
     inkscape:pageopacity="0.0"
     inkscape:pageshadow="2"
     inkscape:zoom="0.49497475"
     inkscape:cx="169.02961"
     inkscape:cy="558.4175"
     inkscape:document-units="px"
     inkscape:current-layer="g3955"
     showgrid="false"
     inkscape:window-width="1278"
     inkscape:window-height="780"
     inkscape:window-x="0"
     inkscape:window-y="18"
     inkscape:window-maximized="1" />
  <metadata
     id="metadata3987">
    <rdf:RDF>
      <cc:Work
         rdf:about="">
        <dc:format>image/svg+xml</dc:format>
        <dc:type
           rdf:resource="http://purl.org/dc/dcmitype/StillImage" />
        <dc:title />
      </cc:Work>
    </rdf:RDF>
  </metadata>
  <g
     inkscape:label="Layer 1"
     inkscape:groupmode="layer"
     id="layer1"
     transform="translate(0,-461.99678)">
    <g
       id="g3955"
       transform="matrix(0.66388546,-0.74783427,0.74783427,0.66388546,180.3122,-413.47563)">
      <path
         transform="matrix(0.8314552,-0.00867924,0.00867924,0.8314552,-1038.6021,433.15509)"
         d="m 620,528.07648 c 0,185.40988 -150.30441,335.71429 -335.71429,335.71429 -185.40989,0 -335.714299,-150.30441 -335.714299,-335.71429 0,-185.40989 150.304409,-335.7143 335.714299,-335.7143 C 469.69559,192.36218 620,342.66659 620,528.07648 z"
         sodipodi:ry="335.71429"
         sodipodi:rx="335.71429"
         sodipodi:cy="528.07648"
         sodipodi:cx="284.28571"
         id="path2985"
         style="fill:#ffffff;fill-opacity:1;fill-rule:nonzero;stroke:none"
         sodipodi:type="arc" />
      <g
         transform="matrix(-0.06979926,0.84586834,-0.84586834,-0.06979926,87.357976,1542.0927)"
         id="g3948">
        <g
           id="g3944"
           transform="matrix(0.73885951,-0.74052581,0.74052581,0.73885951,-1093.5177,234.33459)">
          <path
             style="fill:#d40000;fill-opacity:1;stroke:none"
             d="m -1075.8954,122.05323 c -154.1385,3.85858 -231.9431,4.6199 -336.2461,4.78851 -30.9648,60.80015 -49.8977,101.93797 -74.8465,152.90696 82.7377,93.93715 165.4752,187.8743 248.2129,281.81145 79.68,-97.42876 159.3601,-194.85751 239.04006,-292.28627 -25.38596,-49.07339 -346.55636,56.599 -76.16036,-147.22065 z"
             id="path3927"
             inkscape:connector-curvature="0"
             sodipodi:nodetypes="cccccc" />
        </g>
        <text
           xml:space="preserve"
           style="font-size:26.09719849px;font-style:normal;font-variant:normal;font-weight:normal;font-stretch:normal;line-height:125%;letter-spacing:0px;word-spacing:0px;fill:#333333;fill-opacity:1;stroke:none;font-family:Myriad Pro;-inkscape-font-specification:Myriad Pro"
           x="-1871.2173"
           y="1735.2443"
           id="text3887"
           sodipodi:linespacing="125%"
           transform="matrix(0.99822205,0.0596048,-0.0596048,0.99822205,0,0)"><tspan
             sodipodi:role="line"
             id="tspan3889"
             x="-1871.2173"
             y="1735.2443"
             style="font-size:93.94992065px;font-style:normal;font-variant:normal;font-weight:600;font-stretch:normal;fill:#333333;font-family:Lato;-inkscape-font-specification:Lato Semi-Bold">ME.<tspan
   style="fill:#d40000"
   id="tspan3797">Ruby</tspan></tspan></text>
        <text
           xml:space="preserve"
           style="font-size:90.66010284px;font-style:normal;font-weight:normal;line-height:125%;letter-spacing:0px;word-spacing:0px;fill:#333333;fill-opacity:1;stroke:none;font-family:Sans"
           x="-1426.8903"
           y="-1644.5425"
           id="text3793"
           sodipodi:linespacing="125%"
           transform="matrix(-0.11465576,-0.99570495,0.99420996,-0.08774286,0,0)"><tspan
             sodipodi:role="line"
             id="tspan3795"
             x="-1426.8903"
             y="-1644.5425"
             style="font-size:145.05615234px;font-style:normal;font-variant:normal;font-weight:bold;font-stretch:normal;fill:#333333;font-family:DejaVu Sans;-inkscape-font-specification:DejaVu Sans Bold">2015</tspan></text>
      </g>
      <g
         id="g4535"
         transform="matrix(4.1741694,4.5631732,-4.5631732,4.1741694,-241.77364,-122.80838)"
         style="fill:#d40000">
        <polygon
           clip-rule="evenodd"
           points="88.48,59.871 92.861,45.5 77.692,45.5 "
           id="polygon4537"
           style="fill:#da613a;fill-opacity:1;fill-rule:evenodd" />
        <polygon
           clip-rule="evenodd"
           points="57.085,45.5 61.465,59.871 72.253,45.5 "
           id="polygon4539"
           style="fill:#f4955f;fill-opacity:1;fill-rule:evenodd" />
        <polygon
           clip-rule="evenodd"
           points="86.534,64.525 74.973,49.123 63.411,64.525 "
           id="polygon4541"
           style="fill:#da613a;fill-opacity:1;fill-rule:evenodd" />
        <polygon
           clip-rule="evenodd"
           points="74.973,104.182 85.735,68.875 64.21,68.875 "
           id="polygon4543"
           style="fill:#da613a;fill-opacity:1;fill-rule:evenodd" />
        <polygon
           clip-rule="evenodd"
           points="109.549,68.875 90.283,68.875 79.428,104.485 "
           id="polygon4547"
           style="fill:#b24526;fill-opacity:1;fill-rule:evenodd" />
        <polygon
           clip-rule="evenodd"
           points="53.182,47.617 40.176,64.525 58.336,64.525 "
           id="polygon4549"
           style="fill:#f4955f;fill-opacity:1;fill-rule:evenodd" />
        <polygon
           clip-rule="evenodd"
           points="70.521,104.5 59.662,68.875 40.332,68.875 "
           id="polygon4551"
           style="fill:#da613a;fill-opacity:1;fill-rule:evenodd" />
      </g>
      <g
         id="g5349"
         transform="matrix(0.8315005,0,0,0.8315005,-209.61289,170.64063)">
        <g
           id="g6246"
           inkscape:export-filename="/home/lxsameer/src/IOR/IrRubyConf2015/src/_assets/images/high-logo.png"
           inkscape:export-xdpi="90"
           inkscape:export-ydpi="90">
          <g
             id="g5328"
             transform="matrix(1.0312198,8.6932928e-5,8.6932928e-5,1.0312406,-242.79515,-596.4213)">
            <g
               id="g5233"
               transform="matrix(2.7276355,3.0725472,-3.3587768,2.9817342,-703.47209,-21.676689)">
              <path
                 d="m 299.341,202.957 c -0.549,0 -1.101,-0.206 -1.526,-0.62 -0.864,-0.842 -0.884,-2.227 -0.042,-3.093 l 0.723,-0.74 c -0.979,0.765 -1.812,1.301 -2.49,1.58 -1.519,0.627 -2.668,0.057 -3.24,-0.681 -0.796,-1.034 -1.614,-2.094 4.155,-10.598 -1.782,1.954 -3.359,3.279 -4.714,3.799 -1.733,0.669 -3.921,1.268 -5.432,-0.007 -1.467,-1.237 -1.099,-3.085 -0.898,-4.078 l 0.037,-0.179 c -0.483,-1.356 0.537,-2.59 9.006,-12.494 3.579,-4.187 8.484,-9.921 9.053,-11.071 0.322,-1.088 2.595,-5.525 5.33,-10.576 -1.072,1.237 -2.148,2.487 -3.206,3.719 -1.042,1.605 -10.508,16.147 -12.576,18.628 -2.336,2.805 -11.465,9.108 -14.58,10.066 -1.404,0.428 -2.507,-0.25 -2.971,-1.118 -1.902,-3.55 11.218,-17.133 11.362,-17.25 0.188,-0.157 0.549,-0.549 1.057,-1.136 -10.92,11.061 -12.839,11.444 -13.826,11.642 -2.083,0.414 -2.917,-0.878 -3.123,-1.282 -0.938,-1.859 -0.317,-3.527 9.761,-12.69 1.05,-0.952 2.722,-2.975 4.695,-5.558 -0.63,0.657 -1.174,1.19 -1.589,1.545 -0.657,0.563 -1.628,1.545 -2.759,2.682 -5.261,5.292 -8.931,8.719 -11.841,8.485 -0.977,-0.087 -1.82,-0.575 -2.373,-1.375 -2.825,-4.078 3.403,-9.312 7.952,-13.132 l 0.964,-0.814 c 0.383,-0.328 0.986,-1.057 1.736,-2.061 -0.356,0.312 -0.713,0.607 -1.074,0.88 -1.975,1.5 -3.662,2.843 -5.12,4.006 -3.179,2.532 -5.277,4.204 -7.235,5.02 -1.442,0.601 -2.545,0.046 -3.096,-0.675 -0.68,-0.891 -1.287,-1.686 1.561,-5.925 -0.69,0.515 -1.274,0.957 -1.691,1.29 -2.019,1.611 -3.419,0.16 -3.571,-0.011 -2.369,-2.646 4.13,-9.843 4.199,-9.911 1.82,-1.82 4.569,-5.186 6.307,-8.275 1.931,-3.436 6.246,-8.995 6.429,-9.23 0.737,-0.953 2.117,-1.127 3.069,-0.385 0.955,0.742 1.125,2.117 0.383,3.07 -0.042,0.055 -4.297,5.536 -6.067,8.688 -0.776,1.379 -1.715,2.789 -2.697,4.119 1.023,-1.075 3.639,-4.277 5.958,-7.117 8.01,-9.802 8.01,-9.822 9.917,-8.517 0.791,0.544 1.497,1.613 0.354,3.612 -1.255,2.194 -2.771,5.021 -4.099,7.495 -0.642,1.195 -1.221,2.273 -1.711,3.174 3.24,-4.503 5.667,-9.326 5.706,-9.399 l 0.435,-0.594 c 5.681,-5.5 7.107,-5.364 8.374,-4.63 0.781,0.45 1.479,1.471 1.101,2.983 -0.679,2.716 -10.1,18.098 -14.658,23.859 0.254,-0.24 0.488,-0.453 0.698,-0.634 2.271,-1.947 10.2,-11.44 13.064,-14.934 9.817,-11.638 10.278,-11.3 12.009,-10.117 1.172,0.802 1.292,2.081 0.354,3.801 -1.289,2.363 -6.262,9.979 -11.377,17.256 3.601,-3.716 6.719,-6.897 7.795,-7.855 0.698,-0.693 4.08,-5.719 6.316,-9.045 6.465,-9.607 6.475,-9.594 8.44,-8.403 1.924,1.161 0.996,2.887 -0.544,5.746 -2.324,4.315 -6.658,10.737 -11.218,17.074 13.777,-16.012 14.045,-15.786 15.903,-14.395 1.738,1.305 0.483,3.22 0.01,3.94 -3.413,5.21 -11.187,19.501 -13.489,24.275 1.384,-2.04 2.327,-3.352 2.976,-4.048 0.95,-1.017 3.208,-3.735 5.601,-6.614 10.029,-12.068 10.027,-12.065 11.995,-10.752 0.515,0.345 1.602,1.37 0.525,3.417 -2.134,4.05 -17.114,28.005 -21.86,34.263 -2.344,3.091 -4.36,5.862 -6.018,8.231 2.966,-3.049 5.94,-6.317 7.432,-7.957 l 1.489,-1.627 c 1.008,-1.084 4.629,-6.548 7.825,-11.37 10.117,-15.262 10.659,-15.79 12.461,-15.278 l 0.645,-0.54 c 1.687,-1.432 3.425,-2.916 5.168,-1.576 1.782,1.377 0.867,3.654 -0.854,7.24 -5.334,11.111 -15.31,24.44 -21.494,30.417 -6.155,5.95 -13.628,13.627 -13.704,13.704 -0.427,0.44 -0.999,0.661 -1.567,0.661 z m -9.017,-14.714 -0.032,0.404 0.344,-0.127 c 2.585,-0.995 8.748,-9.8 13.235,-16.475 -1.406,1.693 -3.245,3.855 -5.627,6.642 -2.939,3.438 -6.872,8.037 -7.92,9.556 z m 40.806,-30.361 c -1.836,2.365 -5.938,8.55 -8.796,12.864 -4.365,6.586 -7.1,10.674 -8.264,11.929 l -1.46,1.597 -1.345,1.472 0.305,-0.295 c 5.64,-5.452 14.666,-17.534 19.81,-27.589 l -0.25,0.022 z m -32.253,3.076 c -4.27,5.576 -7.788,9.862 -8.777,10.671 -1.023,0.837 -3.677,3.982 -6.011,7.003 2.625,-1.82 5.183,-3.821 6.072,-4.888 1.147,-1.378 5.325,-7.635 8.716,-12.786 z m -21.187,0.16 c -2.361,2.002 -4.102,3.628 -5.212,4.869 1.706,-1.403 3.782,-3.439 5.212,-4.869 z"
                 id="path4858"
                 inkscape:connector-curvature="0"
                 style="fill:#da613a" />
              <path
                 d="m 303.298,205.145 c -0.867,0 -1.689,-0.52 -2.031,-1.375 0,0 -0.63,-1.573 -2.517,-6.608 -2.476,-6.604 4.651,-13.589 9.119,-17.163 1.118,-0.895 2.793,-2.792 4.702,-5.225 -2.659,2.239 -5.693,4.395 -9.136,6.338 -5.798,3.273 -9.297,5.842 -10.615,6.809 -0.615,0.45 -2.253,1.649 -3.586,0.121 -1.338,-1.532 0.024,-2.941 0.679,-3.618 6.23,-6.448 13.394,-15.299 21.311,-26.326 l -2.156,2.256 c -7.041,7.374 -15.022,15.732 -19.685,19.598 -5.386,4.465 -6.213,5.15 -7.82,3.735 -1.506,-1.321 -0.498,-2.925 0.312,-4.214 1.377,-2.188 2.061,-3.621 2.036,-4.265 l -0.542,-0.078 c -2.18,-0.242 -2.998,-1.539 -3.291,-2.291 -1.189,-3.051 1.838,-7.57 9.189,-16.227 -0.64,-1.37 0.547,-3.035 1.882,-4.912 1.858,-2.611 4.895,-6.46 7.712,-9.785 l 0.071,-0.732 c 0.154,-1.577 0.151,-2.598 0.105,-3.242 -2.563,2.103 -7.764,9.456 -11.35,14.526 -6.084,8.601 -11.829,16.725 -15.938,18.71 -2.14,1.031 -4.353,2.1 -5.665,0.267 -1.333,-1.859 -0.007,-3.21 3.932,-7.224 3.083,-3.145 7.307,-7.449 9.871,-11.497 l 1.484,-2.336 c 2.764,-4.347 4.048,-6.368 5.002,-8.593 -2.417,2.38 -5.417,5.538 -7.903,8.152 -4.331,4.558 -8.807,9.272 -11.592,11.571 -1.417,1.173 -5.186,4.287 -7.664,1.942 -3.292,-3.114 2.299,-10.92 2.947,-11.801 4.351,-5.905 15.217,-19.493 15.676,-20.068 0.754,-0.944 2.126,-1.099 3.076,-0.342 0.942,0.754 1.096,2.131 0.342,3.074 -0.112,0.14 -11.272,14.097 -15.571,19.932 -1.357,1.842 -2.216,3.518 -2.684,4.739 0.312,-0.225 0.675,-0.503 1.093,-0.848 2.579,-2.131 6.965,-6.747 11.206,-11.211 11.362,-11.957 13.572,-13.961 15.923,-12.623 0.671,0.383 1.699,1.364 1.055,3.622 -0.149,0.516 -0.291,0.999 -0.427,1.453 4.202,-5.297 6.641,-7.042 9.055,-6.147 1.494,0.557 2.17,1.953 2.419,3.693 2.441,-2.455 3.555,-2.749 4.856,-1.996 1.98,1.151 0.896,3.489 0.54,4.257 -1.013,2.179 -3.218,5.118 -5.964,8.435 -0.125,1.592 -0.198,2.758 -0.254,3.597 -0.144,2.245 -0.225,3.481 -1.838,3.918 -0.586,0.156 -1.704,0.217 -2.622,-1.146 -0.068,-0.098 -0.176,-0.26 -0.239,-0.309 l -0.332,0.117 -0.718,0.825 c -4.385,5.039 -11.519,13.234 -12.454,16.216 2.18,0.404 3.127,1.509 3.56,2.407 0.288,0.597 0.415,1.224 0.42,1.865 4.6,-4.144 11.475,-11.344 17.625,-17.784 15.098,-15.806 15.947,-16.484 18.069,-14.72 1.851,1.526 1.912,2.415 -7.954,16.299 -4.673,6.578 -9.104,12.435 -13.259,17.528 17.263,-10.463 22.781,-26.808 22.837,-26.976 l 0.176,-0.537 0.413,-0.385 c 2.397,-2.222 4.001,-1.91 4.924,-1.255 1.978,1.4 0.996,4.154 -0.178,6.855 -3.218,7.401 -15.298,25.249 -20.327,29.272 -5.942,4.753 -8.84,9.319 -7.756,12.212 1.848,4.929 2.473,6.495 2.483,6.519 0.449,1.122 -0.098,2.394 -1.218,2.843 -0.269,0.106 -0.545,0.156 -0.816,0.156 z"
                 id="path4860"
                 inkscape:connector-curvature="0"
                 style="fill:#da613a" />
              <path
                 d="m 305.366,199.476 c -0.752,0 -1.499,-0.233 -2.131,-0.706 l -3.75,-2.812 c -0.964,-0.725 -1.162,-2.096 -0.437,-3.063 0.723,-0.967 2.092,-1.162 3.064,-0.438 l 2.083,1.562 c -0.466,-0.725 -0.955,-1.448 -1.406,-2.112 -1.907,-2.814 -2.957,-4.364 -1.445,-5.852 1.343,-1.327 2.966,-0.386 3.899,0.25 -0.195,-0.581 -0.466,-1.302 -0.837,-2.195 -0.928,-2.227 -2.329,-5.592 0.015,-7.013 1.682,-1.016 3.857,0.052 6.47,3.176 -0.364,-0.936 -0.754,-1.838 -1.084,-2.598 -1.13,-2.61 -1.877,-4.333 -0.244,-5.558 1.594,-1.19 3.262,0.198 3.889,0.72 l 0.527,0.448 c -0.437,-0.658 -0.867,-1.285 -1.245,-1.838 -2.158,-3.152 -3.24,-4.734 -1.733,-6.259 1.458,-1.471 3.335,-0.212 4.138,0.322 0.645,0.43 1.272,0.92 1.875,1.44 l -0.61,-0.784 c -1.094,-1.395 -2.222,-2.838 -0.83,-4.282 1.06,-1.096 2.28,-0.654 3.083,-0.177 -1.558,-2.26 -2.278,-3.94 -1.055,-5.416 1.501,-1.813 4.155,-0.732 6.965,0.634 0.437,0.212 0.957,0.472 1.523,0.77 -0.034,-0.609 0.132,-1.174 0.63,-1.719 1.121,-1.221 2.495,-0.768 4.087,-0.254 0.623,0.204 1.431,0.466 2.454,0.75 1.165,0.323 1.846,1.53 1.521,2.694 -0.322,1.162 -1.523,1.848 -2.693,1.522 l -0.31,-0.088 0.122,0.311 c 0.146,0.38 0.291,0.696 0.42,0.958 1.096,1.064 1.777,2.162 1.597,3.175 l -0.293,1.631 -1.68,0.189 c -1.169,0.122 -2.185,-0.651 -3.13,-2.264 -0.859,-0.717 -2.373,-1.794 -4.91,-3.113 2.351,3.17 3.77,5.251 3.77,7.092 0,2.036 -1.069,2.793 -1.707,3.063 -0.427,0.183 -0.85,0.249 -1.267,0.21 0.105,0.48 0.161,0.952 0.161,1.415 0,1.772 -0.603,2.91 -1.794,3.381 -0.83,0.327 -1.57,0.239 -2.317,-0.15 0.112,0.305 0.21,0.603 0.288,0.892 0.232,0.873 0.85,3.191 -0.972,4.298 -1.375,0.839 -2.703,0.28 -4.417,-1.085 0.454,1.433 0.774,2.891 0.774,4.226 0,0.819 0,3.313 -2.07,3.965 -1.787,0.571 -3.162,-0.732 -4.565,-2.599 0.601,2.261 0.488,3.928 -0.813,4.973 -0.337,0.272 -0.696,0.447 -1.06,0.544 l 0.042,0.067 c 1.958,3.077 1.25,5.476 -0.068,6.696 -0.715,0.664 -1.623,1.001 -2.524,1.001 z"
                 id="path4862"
                 inkscape:connector-curvature="0"
                 style="fill:#b24526" />
              <path
                 d="m 264.013,155.151 -0.385,-0.026 c -3.666,-0.5 -4.79,-5.458 -4.978,-6.447 -0.211,-1.11 0.455,-2.183 1.514,-2.502 -0.137,-1.041 0.073,-1.912 0.923,-2.582 1.041,-0.819 2.346,-0.692 3.883,0.383 0.97,0.68 1.843,1.526 2.616,2.391 -0.21,-0.83 -0.443,-1.625 -0.648,-2.321 -0.681,-2.319 -1.219,-4.152 0.532,-5.161 1.78,-1.023 3.289,0.571 4.29,1.626 0.479,0.503 0.95,1.094 1.411,1.733 -0.586,-1.549 -1.331,-2.963 -2.224,-4.23 -1.158,-1.641 -0.356,-2.74 0.044,-3.137 0.881,-0.879 1.98,-0.856 3.262,0.06 0.525,0.375 1.619,1.156 3.506,2.288 l 0.979,0.588 c 0.669,0.403 1.289,0.775 1.829,1.095 0.107,-0.289 0.244,-0.588 0.417,-0.892 0.881,-1.547 1.958,-3.004 4.268,-2.457 0.322,0.073 0.603,0.143 1.445,-0.173 1.133,-0.425 2.393,0.146 2.817,1.281 0.425,1.13 -0.149,2.391 -1.279,2.816 -1.433,0.537 -2.463,0.581 -3.311,0.464 l -0.142,0.239 c -0.227,0.397 -0.225,0.765 -0.222,1.193 0.002,0.568 0.01,1.896 -1.248,2.612 -1.284,0.73 -1.992,0.461 -5.481,-1.619 0.42,1.376 0.742,2.817 0.964,4.325 0.52,3.505 0.93,6.272 -1.313,7.048 -2.083,0.717 -3.125,-1.007 -4.937,-4.176 0.015,0.261 0.022,0.522 0.022,0.782 0,1.19 0,3.405 -1.912,4.044 -1.714,0.566 -2.845,-0.658 -4.061,-2.244 0.056,0.768 -0.095,1.439 -0.562,2.035 -0.483,0.618 -1.219,0.964 -2.019,0.964 z"
                 id="path4864"
                 inkscape:connector-curvature="0"
                 style="fill:#f4955f" />
            </g>
            <g
               id="g5269"
               transform="matrix(2.9411083,3.3130136,-3.8328265,3.4025692,130.28237,-913.2997)"
               style="fill:#4d4d4d">
              <path
                 style="fill:#4d4d4d"
                 inkscape:connector-curvature="0"
                 id="path4910"
                 d="m 304.06767,423.56275 -1.484,-1.506 c -0.432,-0.437 -10.579,-10.751 -13.325,-14.343 -1.057,-1.383 -3.171,-3.981 -5.598,-6.963 -3.708,-4.561 -8.324,-10.236 -10.878,-13.685 -4.097,-5.529 -12.657,-16.15 -12.744,-16.257 l -0.82,-1.017 0.671,-1.122 c 0.082,-0.137 0.894,-1.443 4.248,-5.216 3.239,-3.644 11.108,-14.253 11.188,-14.36 l 0.566,-0.764 0.952,0.006 c 0.004,0 2.114,0.015 5.09,0.015 4.858,0 13.557,-0.04 17.214,-0.312 5.63,-0.416 22.749,-0.421 23.474,-0.421 h 0.813 l 23.127,24.698 -1.023,1.27 c -0.708,0.879 -17.393,21.572 -21.77,26.161 -4.27,4.47 -18.245,21.989 -18.384,22.166 l -1.317,1.65 z m -40.208,-53.986 c 2.329,2.903 8.589,10.74 11.935,15.256 2.504,3.38 7.091,9.02 10.775,13.55 2.456,3.021 4.595,5.651 5.667,7.052 2.007,2.623 8.574,9.434 11.541,12.479 3.638,-4.537 13.645,-16.953 17.28,-20.76 3.66,-3.835 16.763,-19.988 20.54,-24.657 l -19.788,-21.13 c -3.53,0.006 -17.573,0.054 -22.383,0.41 -3.589,0.266 -11.494,0.322 -17.493,0.322 -1.787,0 -3.264,-0.005 -4.165,-0.01 -1.896,2.543 -7.963,10.63 -10.829,13.855 -1.552,1.746 -2.509,2.907 -3.08,3.633 z" />
              <path
                 style="fill:#4d4d4d"
                 inkscape:connector-curvature="0"
                 id="path4916"
                 d="m 311.60614,374.05649 c -0.144,-0.005 -27.659,-1.88 -31.724,-2.194 -3.967,-0.305 -16.649,-0.616 -16.776,-0.619 -1.036,-0.026 -1.854,-0.885 -1.83,-1.92 0.026,-1.036 0.98,-1.815 1.92,-1.83 0.526,0.013 12.909,0.317 16.974,0.631 4.06,0.311 31.545,2.186 31.545,2.186 l 32.981,-0.317 c 1.016,-0.089 1.882,0.823 1.892,1.858 0.01,1.035 -0.823,1.882 -1.858,1.892 l -33.124,0.313 z" />
              <path
                 style="fill:#4d4d4d"
                 inkscape:connector-curvature="0"
                 id="path4918"
                 d="m 303.54967,422.72642 -23.879,-51.592 c -0.435,-0.94 -0.027,-2.054 0.913,-2.489 0.142,-0.066 0.288,-0.112 0.435,-0.14 0.071,-0.259 0.198,-0.508 0.383,-0.726 1.101,-1.294 10.833,-12.711 13.713,-14.952 0.356,-0.277 0.664,-0.543 0.942,-0.785 3.096,-2.683 4.946,-2.283 9.893,2.113 5.527,4.912 18.135,15.046 18.262,15.149 l 1.096,0.88 -21.758,52.542 z m -19.946,-52.024 19.756,42.683 17.41,-42.042 c -3.215,-2.595 -12.686,-10.275 -17.31,-14.386 -2.891,-2.57 -3.73,-2.848 -3.96,-2.848 -0.154,0.044 -0.635,0.463 -0.989,0.768 -0.322,0.28 -0.679,0.587 -1.091,0.908 -2.183,1.698 -10.242,10.986 -13.162,14.423 -0.186,0.218 -0.41,0.383 -0.654,0.494 z" />
            </g>
          </g>
          <text
             xml:space="preserve"
             style="font-size:97.12847137px;font-style:normal;font-weight:normal;line-height:125%;letter-spacing:0px;word-spacing:0px;fill:#333333;fill-opacity:1;stroke:none;font-family:Sans"
             x="-956.10809"
             y="986.95612"
             id="text5339"
             sodipodi:linespacing="125%"
             transform="matrix(0.99438462,-0.08424221,0.09808918,0.99733718,0,0)"><tspan
               sodipodi:role="line"
               id="tspan5341"
               x="-956.10809"
               y="986.95612"
               style="font-style:normal;font-variant:normal;font-weight:bold;font-stretch:normal;fill:#333333;font-family:Action Man Extended;-inkscape-font-specification:Action Man Extended Bold">2015</tspan></text>
          <text
             xml:space="preserve"
             style="font-size:60.19836044px;font-style:normal;font-weight:normal;line-height:125%;letter-spacing:0px;word-spacing:0px;fill:#333333;fill-opacity:1;stroke:none;font-family:Sans"
             x="787.15204"
             y="676.00177"
             id="text5343"
             sodipodi:linespacing="125%"
             transform="matrix(-0.22671705,0.97487236,-0.97429594,-0.22135879,0,0)"><tspan
               sodipodi:role="line"
               id="tspan5345"
               x="787.15204"
               y="676.00177"
               style="font-style:normal;font-variant:normal;font-weight:normal;font-stretch:normal;fill:#333333;font-family:Action Man Extended;-inkscape-font-specification:Action Man Extended">ME.<tspan
   style="fill:#da613a;fill-opacity:1"
   id="tspan5347">Ruby</tspan></tspan></text>
        </g>
      </g>
    </g>
  </g>
</svg>
